<svg width="36" height="35" viewBox="0 0 36 35" fill="none" xmlns="http://www.w3.org/2000/svg">
<g clip-path="url(#clip0_371_791)">
<path d="M35.5 17.5C35.5 7.83501 27.665 0 18 0C8.33501 0 0.5 7.83501 0.5 17.5C0.5 26.2346 6.89946 33.4746 15.2656 34.7874V22.5586H10.8223V17.5H15.2656V13.6445C15.2656 9.2586 17.8783 6.83594 21.8756 6.83594C23.7897 6.83594 25.793 7.17773 25.793 7.17773V11.4844H23.5863C21.4125 11.4844 20.7344 12.8334 20.7344 14.2188V17.5H25.5879L24.812 22.5586H20.7344V34.7874C29.1005 33.4746 35.5 26.2346 35.5 17.5Z" fill="#333333"/>
</g>
<defs>
<clipPath id="clip0_371_791">
<rect width="35" height="35" fill="white" transform="translate(0.5)"/>
</clipPath>
</defs>
</svg>
