<svg width="35" height="35" viewBox="0 0 35 35" fill="none" xmlns="http://www.w3.org/2000/svg">
<path fill-rule="evenodd" clip-rule="evenodd" d="M35 17.5C35 27.165 27.165 35 17.5 35C7.83502 35 0 27.165 0 17.5C0 7.83502 7.83502 0 17.5 0C27.165 0 35 7.83502 35 17.5ZM18.1271 12.9193C16.425 13.6272 13.0231 15.0926 7.92151 17.3153C7.09309 17.6447 6.65913 17.967 6.61962 18.2821C6.55285 18.8147 7.21979 19.0244 8.12798 19.31C8.25152 19.3488 8.37952 19.3891 8.51074 19.4317C9.40426 19.7222 10.6062 20.062 11.231 20.0755C11.7978 20.0877 12.4304 19.854 13.1289 19.3745C17.8954 16.1569 20.356 14.5306 20.5105 14.4955C20.6194 14.4708 20.7705 14.4397 20.8728 14.5306C20.9751 14.6216 20.965 14.7938 20.9542 14.84C20.8881 15.1217 18.2702 17.5556 16.9154 18.8151C16.493 19.2078 16.1934 19.4863 16.1322 19.5499C15.995 19.6924 15.8552 19.8272 15.7208 19.9567C14.8907 20.7569 14.2682 21.357 15.7553 22.337C16.4699 22.8079 17.0417 23.1973 17.6122 23.5858C18.2353 24.0101 18.8567 24.4333 19.6607 24.9603C19.8655 25.0946 20.0612 25.2341 20.2517 25.3699C20.9768 25.8868 21.6282 26.3512 22.4329 26.2772C22.9006 26.2341 23.3836 25.7944 23.6289 24.483C24.2086 21.3837 25.3482 14.6686 25.6116 11.9014C25.6346 11.659 25.6056 11.3487 25.5823 11.2125C25.559 11.0763 25.5103 10.8822 25.3332 10.7386C25.1236 10.5684 24.7999 10.5326 24.6551 10.5351C23.9969 10.5467 22.9871 10.8979 18.1271 12.9193Z" fill="#333333"/>
</svg>
