<svg width="35" height="35" viewBox="0 0 35 35" fill="none" xmlns="http://www.w3.org/2000/svg">
<mask id="path-1-inside-1_371_783" fill="white">
<path fill-rule="evenodd" clip-rule="evenodd" d="M2.45583 2.45583C0 4.91167 0 8.8655 0 16.7708V18.2292C0 26.1333 0 30.0883 2.45583 32.5442C4.91167 35 8.8655 35 16.7708 35H18.2292C26.1333 35 30.0883 35 32.5442 32.5442C35 30.0883 35 26.1345 35 18.2292V16.7708C35 8.86667 35 4.91167 32.5442 2.45583C30.0883 0 26.1345 0 18.2292 0H16.7708C8.86667 0 4.91167 0 2.45583 2.45583ZM6.92765 10.9375H9.47915C10.1313 10.9375 10.3763 11.2233 10.6213 11.9303C11.8697 15.5657 13.9743 18.7437 14.8388 18.7437C15.1643 18.7437 15.3125 18.5943 15.3125 17.7695V14.0117C15.2541 12.9419 14.8803 12.4792 14.6035 12.1364C14.4326 11.9249 14.2987 11.759 14.2987 11.5243C14.2987 11.2385 14.5425 10.9375 14.9473 10.9375H18.9583C19.4997 10.9375 19.6875 11.2268 19.6875 11.8755V16.9318C19.6875 17.472 19.922 17.6622 20.0842 17.6622C20.4085 17.6622 20.6792 17.472 21.2742 16.877C23.1128 14.8225 24.4102 11.6597 24.4102 11.6597C24.5723 11.2805 24.8722 10.9375 25.5208 10.9375H28.0723C28.8447 10.9375 29.008 11.3353 28.8447 11.8755C28.5203 13.363 25.4112 17.7427 25.4112 17.7427C25.1405 18.1755 25.032 18.3913 25.4112 18.8778C25.545 19.0653 25.8304 19.3451 26.1568 19.665C26.4907 19.9922 26.8673 20.3614 27.1681 20.7165C28.2648 21.9497 29.0908 22.9903 29.3207 23.7067C29.5318 24.4265 29.1667 24.7917 28.4375 24.7917H25.8848C25.2014 24.7917 24.8576 24.4089 24.114 23.5813C23.7989 23.2305 23.412 22.7998 22.897 22.2845C21.3815 20.825 20.734 20.636 20.3548 20.636C19.8415 20.636 19.6875 20.7818 19.6875 21.511V23.8C19.6875 24.4265 19.4868 24.7917 17.864 24.7917C15.1608 24.7917 12.1893 23.1502 10.0812 20.1215C6.91715 15.6882 6.05265 12.3352 6.05265 11.6597C6.05265 11.2805 6.19849 10.9375 6.92765 10.9375Z"/>
</mask>
<path fill-rule="evenodd" clip-rule="evenodd" d="M2.45583 2.45583C0 4.91167 0 8.8655 0 16.7708V18.2292C0 26.1333 0 30.0883 2.45583 32.5442C4.91167 35 8.8655 35 16.7708 35H18.2292C26.1333 35 30.0883 35 32.5442 32.5442C35 30.0883 35 26.1345 35 18.2292V16.7708C35 8.86667 35 4.91167 32.5442 2.45583C30.0883 0 26.1345 0 18.2292 0H16.7708C8.86667 0 4.91167 0 2.45583 2.45583ZM6.92765 10.9375H9.47915C10.1313 10.9375 10.3763 11.2233 10.6213 11.9303C11.8697 15.5657 13.9743 18.7437 14.8388 18.7437C15.1643 18.7437 15.3125 18.5943 15.3125 17.7695V14.0117C15.2541 12.9419 14.8803 12.4792 14.6035 12.1364C14.4326 11.9249 14.2987 11.759 14.2987 11.5243C14.2987 11.2385 14.5425 10.9375 14.9473 10.9375H18.9583C19.4997 10.9375 19.6875 11.2268 19.6875 11.8755V16.9318C19.6875 17.472 19.922 17.6622 20.0842 17.6622C20.4085 17.6622 20.6792 17.472 21.2742 16.877C23.1128 14.8225 24.4102 11.6597 24.4102 11.6597C24.5723 11.2805 24.8722 10.9375 25.5208 10.9375H28.0723C28.8447 10.9375 29.008 11.3353 28.8447 11.8755C28.5203 13.363 25.4112 17.7427 25.4112 17.7427C25.1405 18.1755 25.032 18.3913 25.4112 18.8778C25.545 19.0653 25.8304 19.3451 26.1568 19.665C26.4907 19.9922 26.8673 20.3614 27.1681 20.7165C28.2648 21.9497 29.0908 22.9903 29.3207 23.7067C29.5318 24.4265 29.1667 24.7917 28.4375 24.7917H25.8848C25.2014 24.7917 24.8576 24.4089 24.114 23.5813C23.7989 23.2305 23.412 22.7998 22.897 22.2845C21.3815 20.825 20.734 20.636 20.3548 20.636C19.8415 20.636 19.6875 20.7818 19.6875 21.511V23.8C19.6875 24.4265 19.4868 24.7917 17.864 24.7917C15.1608 24.7917 12.1893 23.1502 10.0812 20.1215C6.91715 15.6882 6.05265 12.3352 6.05265 11.6597C6.05265 11.2805 6.19849 10.9375 6.92765 10.9375Z" fill="#333333"/>
<path d="M10.6213 11.9303L13.4587 10.956L13.4559 10.948L10.6213 11.9303ZM15.3125 14.0117H18.3125V13.9298L18.308 13.8481L15.3125 14.0117ZM14.6035 12.1364L12.2697 14.0214L12.2697 14.0214L14.6035 12.1364ZM21.2742 16.877L23.3955 18.9983L23.4542 18.9396L23.5096 18.8776L21.2742 16.877ZM24.4102 11.6597L21.6518 10.48L21.6431 10.5005L21.6346 10.5212L24.4102 11.6597ZM28.8447 11.8755L25.9731 11.0072L25.9388 11.1206L25.9135 11.2364L28.8447 11.8755ZM25.4112 17.7427L22.9649 16.006L22.9141 16.0776L22.8675 16.1521L25.4112 17.7427ZM25.4112 18.8778L27.8529 17.1348L27.8162 17.0835L27.7774 17.0337L25.4112 18.8778ZM26.1568 19.665L24.0569 21.8075L24.0569 21.8075L26.1568 19.665ZM27.1681 20.7165L24.8791 22.6557L24.9024 22.6832L24.9264 22.7101L27.1681 20.7165ZM29.3207 23.7067L32.1993 22.8622L32.1887 22.826L32.1772 22.7901L29.3207 23.7067ZM24.114 23.5813L21.8823 25.5862H21.8823L24.114 23.5813ZM22.897 22.2845L25.019 20.1639L24.9987 20.1436L24.978 20.1236L22.897 22.2845ZM10.0812 20.1215L12.5434 18.4076L12.5333 18.3931L12.523 18.3788L10.0812 20.1215ZM3 16.7708C3 12.7334 3.00637 10.0067 3.28024 7.96946C3.54252 6.01834 3.99965 5.15465 4.57715 4.57715L0.334513 0.334513C-1.54382 2.21285 -2.3146 4.55399 -2.66628 7.17008C-3.00637 9.70002 -3 12.903 -3 16.7708H3ZM3 18.2292V16.7708H-3V18.2292H3ZM4.57715 30.4228C3.99974 29.8454 3.54255 28.9816 3.28024 27.0301C3.00637 24.9927 3 22.266 3 18.2292H-3C-3 22.0965 -3.00637 25.2994 -2.66628 27.8295C-2.31463 30.4455 -1.54391 32.7871 0.334513 34.6655L4.57715 30.4228ZM16.7708 32C12.7334 32 10.0067 31.9936 7.96946 31.7198C6.01834 31.4575 5.15465 31.0003 4.57715 30.4228L0.334513 34.6655C2.21285 36.5438 4.55399 37.3146 7.17008 37.6663C9.70002 38.0064 12.903 38 16.7708 38V32ZM18.2292 32H16.7708V38H18.2292V32ZM30.4228 30.4228C29.8454 31.0003 28.9816 31.4575 27.0301 31.7198C24.9927 31.9936 22.266 32 18.2292 32V38C22.0965 38 25.2994 38.0064 27.8295 37.6663C30.4455 37.3146 32.7871 36.5439 34.6655 34.6655L30.4228 30.4228ZM32 18.2292C32 22.2666 31.9936 24.9933 31.7198 27.0305C31.4575 28.9817 31.0003 29.8453 30.4228 30.4228L34.6655 34.6655C36.5438 32.7872 37.3146 30.446 37.6663 27.8299C38.0064 25.3 38 22.097 38 18.2292H32ZM32 16.7708V18.2292H38V16.7708H32ZM30.4228 4.57715C31.0003 5.15457 31.4575 6.01844 31.7198 7.96987C31.9936 10.0073 32 12.734 32 16.7708H38C38 12.9035 38.0064 9.70061 37.6663 7.17055C37.3146 4.55447 36.5439 2.21293 34.6655 0.334513L30.4228 4.57715ZM18.2292 3C22.2666 3 24.9933 3.00637 27.0305 3.28024C28.9817 3.54252 29.8453 3.99965 30.4228 4.57715L34.6655 0.334513C32.7872 -1.54382 30.446 -2.3146 27.8299 -2.66628C25.3 -3.00637 22.097 -3 18.2292 -3V3ZM16.7708 3H18.2292V-3H16.7708V3ZM4.57715 4.57715C5.15457 3.99974 6.01844 3.54255 7.96987 3.28024C10.0073 3.00637 12.734 3 16.7708 3V-3C12.9035 -3 9.70061 -3.00637 7.17055 -2.66628C4.55447 -2.31463 2.21293 -1.54391 0.334513 0.334513L4.57715 4.57715ZM9.47915 7.9375H6.92765V13.9375H9.47915V7.9375ZM13.4559 10.948C13.3109 10.5296 12.9935 9.66102 12.2362 8.96296C11.3254 8.12337 10.2652 7.9375 9.47915 7.9375V13.9375C9.4332 13.9375 9.24489 13.9338 8.98569 13.851C8.69965 13.7597 8.4137 13.5996 8.16962 13.3746C7.94387 13.1665 7.82844 12.9714 7.78672 12.8935C7.74905 12.8232 7.75059 12.8084 7.78669 12.9126L13.4559 10.948ZM14.8388 15.7437C15.5877 15.7437 16.053 16.0566 16.1107 16.0946C16.2239 16.1691 16.2407 16.2027 16.1614 16.1196C16.0089 15.9598 15.7452 15.6273 15.4091 15.0961C14.748 14.0514 14.0096 12.5603 13.4587 10.956L7.78394 12.9047C8.48137 14.9357 9.41945 16.8513 10.3389 18.3044C10.7931 19.0222 11.2956 19.7114 11.8199 20.261C12.079 20.5326 12.4118 20.8429 12.8105 21.1054C13.1536 21.3314 13.8738 21.7437 14.8388 21.7437V15.7437ZM12.3125 17.7695C12.3125 17.9023 12.3055 17.9066 12.3157 17.8363C12.3233 17.7846 12.3674 17.4844 12.5729 17.1131C12.8198 16.667 13.2367 16.2341 13.8176 15.9724C14.3139 15.7487 14.7302 15.7437 14.8388 15.7437V21.7437C15.1102 21.7437 15.6671 21.72 16.2827 21.4425C16.9829 21.127 17.4979 20.6052 17.8225 20.0187C18.3166 19.1259 18.3125 18.1528 18.3125 17.7695H12.3125ZM12.3125 14.0117V17.7695H18.3125V14.0117H12.3125ZM12.2697 14.0214C12.3066 14.0672 12.324 14.0889 12.3393 14.1087C12.3524 14.1256 12.3562 14.1312 12.3553 14.1298C12.3505 14.123 12.3341 14.0976 12.3176 14.0621C12.3012 14.0267 12.2967 14.0067 12.2981 14.0126C12.3001 14.0209 12.3112 14.0707 12.3169 14.1753L18.308 13.8481C18.2603 12.9736 18.0734 12.2128 17.7621 11.5407C17.4575 10.883 17.0837 10.4327 16.9373 10.2515L12.2697 14.0214ZM11.2987 11.5243C11.2987 12.9979 12.2425 13.9878 12.2697 14.0214L16.9373 10.2515C16.8868 10.1889 16.8835 10.1842 16.887 10.1889C16.894 10.1983 16.9421 10.2626 17 10.3652C17.137 10.6082 17.2987 11.0125 17.2987 11.5243H11.2987ZM14.9473 7.9375C12.9005 7.9375 11.2987 9.56683 11.2987 11.5243H17.2987C17.2987 12.9102 16.1845 13.9375 14.9473 13.9375V7.9375ZM18.9583 7.9375H14.9473V13.9375H18.9583V7.9375ZM22.6875 11.8755C22.6875 11.4102 22.6521 10.3353 21.9292 9.36764C21.0375 8.17419 19.7568 7.9375 18.9583 7.9375V13.9375C18.8429 13.9375 18.554 13.9244 18.1924 13.7807C17.7926 13.6217 17.4107 13.3444 17.1226 12.9589C16.6289 12.2981 16.6875 11.6921 16.6875 11.8755H22.6875ZM22.6875 16.9318V11.8755H16.6875V16.9318H22.6875ZM20.0842 14.6622C21.1892 14.6622 21.9402 15.2794 22.2992 15.803C22.6613 16.331 22.6875 16.7975 22.6875 16.9318H16.6875C16.6875 17.9961 17.324 20.6622 20.0842 20.6622V14.6622ZM19.1528 14.7557C19.0235 14.885 18.9412 14.9627 18.889 15.0091C18.8345 15.0576 18.8479 15.0404 18.9117 14.9978C18.9815 14.9512 19.1355 14.8579 19.363 14.781C19.6058 14.6989 19.8536 14.6622 20.0842 14.6622V20.6622C21.8473 20.6622 22.9758 19.418 23.3955 18.9983L19.1528 14.7557ZM24.4102 11.6597C21.6346 10.5212 21.6347 10.5208 21.6349 10.5205C21.6349 10.5204 21.635 10.5201 21.6351 10.5199C21.6353 10.5195 21.6354 10.5191 21.6355 10.5188C21.6358 10.5182 21.636 10.5178 21.6361 10.5176C21.6362 10.5171 21.6361 10.5174 21.6357 10.5184C21.6349 10.5204 21.6328 10.5253 21.6296 10.5329C21.6232 10.5482 21.6121 10.5744 21.5965 10.6106C21.5652 10.683 21.5161 10.7948 21.4507 10.9378C21.3193 11.225 21.125 11.6317 20.8799 12.095C20.3707 13.0575 19.7201 14.115 19.0387 14.8764L23.5096 18.8776C24.6669 17.5845 25.5843 16.0333 26.1834 14.9008C26.4925 14.3166 26.7374 13.8042 26.9067 13.4341C26.9917 13.2485 27.0583 13.0971 27.1051 12.9886C27.1286 12.9342 27.1472 12.8905 27.1606 12.8585C27.1674 12.8424 27.1728 12.8293 27.177 12.8192C27.1791 12.8142 27.1809 12.8099 27.1824 12.8064C27.1831 12.8046 27.1837 12.803 27.1843 12.8017C27.1846 12.801 27.1848 12.8004 27.1851 12.7998C27.1852 12.7995 27.1854 12.7991 27.1854 12.7989C27.1856 12.7985 27.1857 12.7982 24.4102 11.6597ZM25.5208 7.9375C24.6332 7.9375 23.7391 8.18541 22.9751 8.76235C22.2487 9.3109 21.8612 9.99033 21.6518 10.48L27.1685 12.8394C27.1212 12.9498 26.9647 13.2682 26.591 13.5504C26.1796 13.8611 25.7598 13.9375 25.5208 13.9375V7.9375ZM28.0723 7.9375H25.5208V13.9375H28.0723V7.9375ZM31.7162 12.7438C31.8916 12.164 32.1788 10.7852 31.2665 9.48282C30.3152 8.12457 28.8377 7.9375 28.0723 7.9375V13.9375C28.0289 13.9375 27.8006 13.9347 27.4839 13.8154C27.1372 13.6847 26.6953 13.4149 26.3522 12.925C25.6739 11.9567 25.9611 11.0468 25.9731 11.0072L31.7162 12.7438ZM25.4112 17.7427C27.8574 19.4793 27.8575 19.4791 27.8576 19.479C27.8577 19.4789 27.8578 19.4787 27.8579 19.4786C27.8581 19.4782 27.8584 19.4779 27.8587 19.4774C27.8594 19.4765 27.8602 19.4754 27.8612 19.474C27.8632 19.4711 27.866 19.4672 27.8694 19.4623C27.8764 19.4525 27.8862 19.4386 27.8988 19.4207C27.9238 19.3851 27.9598 19.334 28.0051 19.2691C28.0957 19.1394 28.2241 18.9542 28.3787 18.7281C28.6868 18.2773 29.104 17.656 29.5348 16.9814C29.9616 16.313 30.4222 15.5601 30.8067 14.8532C31.1383 14.2436 31.5933 13.3518 31.7758 12.5146L25.9135 11.2364C25.9339 11.143 25.8786 11.3564 25.5359 11.9864C25.2463 12.519 24.8688 13.14 24.4777 13.7524C24.0907 14.3586 23.7104 14.9252 23.4254 15.3421C23.2834 15.5498 23.1664 15.7185 23.0857 15.8341C23.0453 15.8918 23.0142 15.9362 22.9935 15.9655C22.9832 15.9801 22.9756 15.991 22.9707 15.9978C22.9683 16.0012 22.9666 16.0036 22.9656 16.005C22.9651 16.0057 22.9648 16.0061 22.9647 16.0063C22.9646 16.0064 22.9646 16.0064 22.9647 16.0064C22.9647 16.0064 22.9647 16.0063 22.9647 16.0063C22.9648 16.0062 22.9649 16.006 25.4112 17.7427ZM27.7774 17.0337C27.7787 17.0354 27.889 17.1731 27.9909 17.423C28.1087 17.7116 28.1928 18.0949 28.1578 18.5303C28.1254 18.9337 28.0029 19.2178 27.9514 19.3258C27.9104 19.4116 27.8807 19.4517 27.9548 19.3333L22.8675 16.1521C22.821 16.2264 22.2598 17.02 22.1771 18.05C22.0745 19.3279 22.6791 20.2526 23.0449 20.722L27.7774 17.0337ZM28.2568 17.5225C28.0852 17.3544 27.9639 17.2351 27.869 17.1369C27.8239 17.0903 27.7999 17.0638 27.7903 17.053C27.7767 17.0375 27.8056 17.0686 27.8529 17.1348L22.9694 20.6208C23.2979 21.0809 23.8388 21.5937 24.0569 21.8075L28.2568 17.5225ZM29.4572 18.7773C29.0497 18.2963 28.5676 17.8272 28.2568 17.5225L24.0569 21.8075C24.4137 22.1572 24.6849 22.4264 24.8791 22.6557L29.4572 18.7773ZM32.1772 22.7901C31.9062 21.9453 31.3954 21.1817 30.9822 20.6225C30.5291 20.0093 29.9777 19.3613 29.4099 18.7229L24.9264 22.7101C25.4553 23.3048 25.8652 23.7938 26.1567 24.1883C26.3006 24.383 26.3939 24.5256 26.4501 24.6221C26.5118 24.7278 26.4956 24.7213 26.4641 24.6232L32.1772 22.7901ZM28.4375 27.7917C29.1797 27.7917 30.5204 27.6204 31.5053 26.4763C32.5836 25.2236 32.4581 23.7444 32.1993 22.8622L26.442 24.5511C26.3943 24.3888 26.1918 23.452 26.9581 22.5619C27.6309 21.7803 28.4244 21.7917 28.4375 21.7917V27.7917ZM25.8848 27.7917H28.4375V21.7917H25.8848V27.7917ZM21.8823 25.5862C22.1762 25.9133 22.6662 26.4782 23.2168 26.893C23.9576 27.451 24.839 27.7917 25.8848 27.7917V21.7917C26.0057 21.7917 26.1951 21.8105 26.4123 21.8863C26.6247 21.9603 26.7665 22.055 26.8272 22.1007C26.873 22.1353 26.862 22.1343 26.7633 22.0324C26.663 21.9289 26.5427 21.7957 26.3457 21.5763L21.8823 25.5862ZM20.775 24.4051C21.2291 24.8596 21.5704 25.2389 21.8823 25.5862L26.3457 21.5763C26.0274 21.222 25.5948 20.74 25.019 20.1639L20.775 24.4051ZM20.3548 23.636C20.1761 23.636 20.0016 23.6104 19.8519 23.5663C19.7193 23.5273 19.6649 23.4909 19.7023 23.5124C19.8019 23.5699 20.1425 23.7968 20.816 24.4454L24.978 20.1236C23.4097 18.6133 22.0055 17.636 20.3548 17.636V23.636ZM22.6875 21.511C22.6875 21.4067 22.6954 21.4791 22.6651 21.6359C22.6342 21.7957 22.5294 22.229 22.166 22.6807C21.7614 23.1836 21.257 23.4394 20.8678 23.552C20.6953 23.6019 20.5581 23.6206 20.4816 23.6284C20.4046 23.6362 20.3568 23.636 20.3548 23.636V17.636C20.0438 17.636 18.5412 17.6146 17.4913 18.9195C17.0252 19.4987 16.8499 20.1052 16.7741 20.4974C16.6988 20.8867 16.6875 21.2507 16.6875 21.511H22.6875ZM22.6875 23.8V21.511H16.6875V23.8H22.6875ZM17.864 27.7917C18.6773 27.7917 19.9762 27.7456 21.0547 27.0227C22.6051 25.9834 22.6875 24.3771 22.6875 23.8H16.6875C16.6875 23.7999 16.6875 23.7867 16.6886 23.7636C16.6898 23.7405 16.6924 23.7029 16.6984 23.654C16.7102 23.5584 16.7381 23.397 16.8091 23.2005C16.976 22.7381 17.2951 22.3195 17.7139 22.0388C17.893 21.9188 18.0487 21.8522 18.1476 21.817C18.2451 21.7822 18.305 21.7718 18.3072 21.7714C18.3105 21.7708 18.2784 21.7765 18.1997 21.782C18.1219 21.7874 18.0124 21.7917 17.864 21.7917V27.7917ZM7.61892 21.8354C10.1547 25.4784 13.9669 27.7917 17.864 27.7917V21.7917C16.3547 21.7917 14.2239 20.822 12.5434 18.4076L7.61892 21.8354ZM3.05265 11.6597C3.05265 12.248 3.19901 12.905 3.34281 13.4325C3.51013 14.0462 3.75994 14.7872 4.10869 15.6293C4.80759 17.3169 5.92548 19.4629 7.63926 21.8642L12.523 18.3788C11.0728 16.3467 10.1765 14.5996 9.65211 13.3335C9.38924 12.6988 9.22518 12.1978 9.13153 11.8543C9.01436 11.4245 9.05265 11.409 9.05265 11.6597H3.05265ZM6.92765 7.9375C6.15998 7.9375 4.97823 8.11293 4.0508 9.08063C3.13434 10.0369 3.05265 11.1635 3.05265 11.6597H9.05265C9.05265 11.7766 9.04389 12.5422 8.38263 13.2322C7.71041 13.9336 6.96616 13.9375 6.92765 13.9375V7.9375Z" fill="#333333" mask="url(#path-1-inside-1_371_783)"/>
</svg>
